<svg width="73" height="72" viewBox="0 0 73 72" fill="none" xmlns="http://www.w3.org/2000/svg">
<path d="M36.5 4C54.1731 4 68.5 18.3269 68.5 36C68.5 53.6731 54.1731 68 36.5 68C18.8269 68 4.5 53.6731 4.5 36C4.5 18.5036 18.5418 4.28687 35.9708 4.00429L36.5 4ZM39.7432 59.8778L39.6427 59.8857C38.6087 59.9613 37.5604 60 36.5 60C35.405 60 34.3229 59.9588 33.2562 59.8782L33.2505 59.8567C33.2825 59.9644 33.3145 60.0708 33.3467 60.1758L33.541 60.7897C33.5735 60.8893 33.6062 60.9876 33.6389 61.0845L33.8358 61.6496L34.0335 62.1817C34.0665 62.2676 34.0995 62.3522 34.1324 62.4353L34.3298 62.9175L34.526 63.3659C34.5911 63.5097 34.6559 63.6478 34.7202 63.7802L34.9116 64.1602L35.0995 64.5055C35.1305 64.5601 35.1613 64.6133 35.1919 64.665L35.3729 64.9577C35.8189 65.6451 36.2131 66 36.5 66C36.7869 66 37.1811 65.6451 37.6271 64.9577L37.8081 64.665C37.8387 64.6133 37.8695 64.5601 37.9005 64.5055L38.0884 64.1602L38.2798 63.7802C38.312 63.714 38.3442 63.6464 38.3766 63.5773L38.5719 63.1459C38.6046 63.0712 38.6374 62.995 38.6702 62.9175L38.8676 62.4353C38.9005 62.3522 38.9335 62.2676 38.9665 62.1817L39.1642 61.6496L39.3611 61.0845C39.3938 60.9876 39.4265 60.8893 39.459 60.7897L39.6533 60.1758C39.6834 60.0776 39.7134 59.9783 39.7432 59.8778ZM20.735 56.8902L20.76 56.925C24.1183 61.6131 28.582 64.8044 33.5323 65.7257C33.2515 65.277 32.9783 64.7657 32.714 64.1967L32.4979 63.714L32.2859 63.2057C32.1461 62.8583 32.0091 62.4942 31.8752 62.114L31.6766 61.5317L31.4827 60.9259L31.2937 60.297L31.1133 59.6614C27.3966 59.1889 23.898 58.2357 20.735 56.8902ZM52.2649 56.8902L52.0784 56.9689C48.9647 58.273 45.5305 59.1982 41.8867 59.6614L41.7063 60.297L41.5173 60.9259L41.3234 61.5317L41.1248 62.114C40.9909 62.4942 40.8539 62.8583 40.7141 63.2057L40.5021 63.714L40.286 64.1967C40.0217 64.7657 39.7485 65.277 39.4675 65.7263C44.4303 64.8021 48.9037 61.5973 52.2649 56.8902ZM9.27627 48.6203L9.4331 48.9538C12.4405 55.2263 17.5641 60.2914 23.8789 63.2239C21.3285 61.1167 19.0954 58.3899 17.2989 55.2011C14.1101 53.4046 11.3833 51.1715 9.27627 48.6203ZM63.7239 48.6211L63.7057 48.6422C61.6011 51.1843 58.8808 53.4097 55.7011 55.2011C53.9046 58.3899 51.6715 61.1167 49.1203 63.2237C55.5472 60.2397 60.7397 55.0472 63.7239 48.6211ZM42.252 43.8704L41.6906 43.8953L40.6717 43.9326C40.501 43.9382 40.3299 43.9434 40.1584 43.9483L39.1245 43.9735L38.0812 43.9904L36.5 44L35.4437 43.9957C35.2684 43.9943 35.0934 43.9925 34.9188 43.9904L33.8755 43.9735L32.8416 43.9483L31.8176 43.915C31.6478 43.9087 31.4784 43.9022 31.3094 43.8953L30.748 43.8704C31.0864 49.1334 31.7606 53.9372 32.7055 57.826C33.948 57.9405 35.214 58 36.5 58C37.786 58 39.052 57.9405 40.2936 57.8253L40.2166 58.1423C41.2024 54.1991 41.9044 49.2771 42.252 43.8704ZM18.5871 53.3886L18.7691 53.7306C22.2155 55.5929 26.2271 56.9304 30.5903 57.5719L30.5886 57.5615L30.4257 56.8253L30.2685 56.0691L30.1171 55.2936L29.9715 54.4993L29.832 53.6867L29.6986 52.8562L29.5715 52.0086L29.4508 51.1442L29.3367 50.2635L29.2293 49.3673L29.1287 48.4558C29.1125 48.3027 29.0966 48.149 29.081 47.9946L28.9908 47.0615L28.9078 46.1145L28.8321 45.1542L28.7638 44.1811L28.737 43.762L28.3189 43.7362L27.3458 43.6679L26.3855 43.5922L25.4385 43.5092L24.5054 43.419L23.5866 43.3219L22.6827 43.2178L21.7942 43.1071L20.9216 42.9896L20.0655 42.8658L19.2264 42.7355L18.4048 42.599L17.6012 42.4565L16.8162 42.3079C16.687 42.2827 16.5585 42.2572 16.4309 42.2315L15.6747 42.0743L14.9385 41.9114L14.9281 41.9098C15.5485 46.1292 16.8197 50.0199 18.5871 53.3886ZM58.0719 41.9098L58.0615 41.9114L57.3253 42.0743L56.5691 42.2315L55.7936 42.3829L54.9993 42.5285L54.1867 42.668L53.3562 42.8014L52.5086 42.9285L51.6442 43.0492L50.7635 43.1633L49.8673 43.2707L48.9558 43.3713C48.8027 43.3875 48.649 43.4034 48.4946 43.419L47.5615 43.5092L46.6145 43.5922L45.6542 43.6679L44.6811 43.7362L44.262 43.762L44.2362 44.1811L44.1679 45.1542L44.0922 46.1145L44.0092 47.0615L43.919 47.9946L43.8219 48.9134L43.7178 49.8173L43.6071 50.7058L43.4896 51.5784L43.3658 52.4345L43.2355 53.2736L43.099 54.0952L42.9565 54.8988L42.8079 55.6838C42.7827 55.813 42.7572 55.9415 42.7315 56.0691L42.5743 56.8253L42.4114 57.5615L42.4098 57.5719C46.7729 56.9304 50.7845 55.5929 54.2309 53.7306C56.0929 50.2845 57.4304 46.2729 58.0719 41.9098ZM6.77371 38.9675L6.81657 39.1866C7.79257 44.0618 10.972 48.4532 15.6098 51.7649C14.2643 48.602 13.3111 45.1034 12.8386 41.3867L12.203 41.2063L11.5741 41.0173L10.9683 40.8234L10.386 40.6248C10.0058 40.4909 9.64168 40.3539 9.29434 40.2141L8.78598 40.0021L8.30332 39.786C7.73432 39.5217 7.22305 39.2485 6.77371 38.9675ZM66.2257 38.9677L66.2048 38.9808C65.7607 39.2572 65.2566 39.5259 64.6967 39.786L64.214 40.0021L63.7057 40.2141C63.3583 40.3539 62.9942 40.4909 62.614 40.6248L62.0317 40.8234L61.4259 41.0173L60.797 41.2063L60.1614 41.3867C59.6889 45.1034 58.7357 48.602 57.3902 51.765C62.0973 48.4037 65.3021 43.9303 66.2257 38.9677ZM36.5 30C34.5084 30 32.5471 30.0464 30.6366 30.1364C30.5464 32.0471 30.5 34.0084 30.5 36C30.5 37.9916 30.5464 39.9529 30.6364 41.8634C32.5471 41.9536 34.5084 42 36.5 42C38.4916 42 40.4529 41.9536 42.3634 41.8636C42.4536 39.9529 42.5 37.9916 42.5 36C42.5 34.0084 42.4536 32.0471 42.3636 30.1366C40.4529 30.0464 38.4916 30 36.5 30ZM14.9246 32.1452L14.6747 32.2064C14.5595 33.448 14.5 34.714 14.5 36C14.5 37.286 14.5595 38.552 14.6747 39.7936L14.3577 39.7166C18.3009 40.7024 23.2229 41.4044 28.6296 41.752L28.6047 41.1906L28.5674 40.1717C28.5618 40.001 28.5566 39.8299 28.5517 39.6584L28.5265 38.6245L28.5096 37.5812L28.5011 36.5292V35.4708L28.5096 34.4188L28.5265 33.3755L28.5517 32.3416L28.585 31.3176C28.5913 31.1478 28.5978 30.9784 28.6047 30.8094L28.6296 30.248C23.479 30.5792 18.7683 31.2319 14.9246 32.1452ZM44.3704 30.248L44.3953 30.8094L44.4326 31.8283C44.4382 31.999 44.4434 32.1701 44.4483 32.3416L44.4735 33.3755L44.4904 34.4188L44.5 36L44.4957 37.0563C44.4943 37.2316 44.4925 37.4066 44.4904 37.5812L44.4735 38.6245L44.4483 39.6584L44.415 40.6824C44.4087 40.8522 44.4022 41.0216 44.3953 41.1906L44.3704 41.752C49.6334 41.4136 54.4372 40.7394 58.326 39.7945C58.4405 38.552 58.5 37.286 58.5 36C58.5 34.714 58.4405 33.448 58.3253 32.2064L58.6423 32.2834C54.6991 31.2976 49.7771 30.5956 44.3704 30.248ZM12.6218 32.7562L12.6433 32.7505C12.5356 32.7825 12.4293 32.8145 12.3242 32.8467L11.7103 33.041C11.6107 33.0735 11.5124 33.1062 11.4155 33.1389L10.8504 33.3358L10.3183 33.5335C10.2324 33.5665 10.1478 33.5995 10.0647 33.6324L9.58253 33.8298L9.13413 34.026C8.99032 34.0911 8.85219 34.1559 8.71978 34.2202L8.33981 34.4116L7.99451 34.5995C7.93987 34.6305 7.88669 34.6613 7.83498 34.6919L7.54231 34.8729C6.85485 35.3189 6.5 35.7131 6.5 36C6.5 36.2869 6.85485 36.6811 7.54231 37.1271L7.83498 37.3081C7.88669 37.3387 7.93987 37.3695 7.99451 37.4005L8.33981 37.5884L8.71978 37.7798C8.78598 37.812 8.85362 37.8442 8.92268 37.8766L9.35409 38.0719C9.42883 38.1046 9.50497 38.1374 9.58253 38.1702L10.0647 38.3676C10.1478 38.4005 10.2324 38.4335 10.3183 38.4665L10.8504 38.6642L11.4155 38.8611C11.5124 38.8938 11.6107 38.9265 11.7103 38.959L12.3242 39.1533C12.4224 39.1834 12.5217 39.2134 12.6222 39.2432C12.5412 38.1771 12.5 37.095 12.5 36C12.5 34.905 12.5412 33.8229 12.6218 32.7562ZM60.3778 32.7568L60.3857 32.8573C60.4613 33.8913 60.5 34.9396 60.5 36C60.5 37.095 60.4588 38.1771 60.3782 39.2438L60.3567 39.2495C60.4644 39.2175 60.5708 39.1855 60.6758 39.1533L61.2897 38.959C61.3893 38.9265 61.4876 38.8938 61.5845 38.8611L62.1496 38.6642L62.6817 38.4665C62.7676 38.4335 62.8522 38.4005 62.9353 38.3676L63.4175 38.1702L63.8659 37.974C64.0097 37.9089 64.1478 37.8441 64.2802 37.7798L64.6602 37.5884L65.0055 37.4005C65.0601 37.3695 65.1133 37.3387 65.165 37.3081L65.4577 37.1271C66.1451 36.6811 66.5 36.2869 66.5 36C66.5 35.7131 66.1451 35.3189 65.4577 34.8729L65.165 34.6919C65.1133 34.6613 65.0601 34.6305 65.0055 34.5995L64.6602 34.4116L64.2802 34.2202C64.214 34.188 64.1464 34.1558 64.0773 34.1234L63.6459 33.9281C63.5712 33.8954 63.495 33.8626 63.4175 33.8298L62.9353 33.6324C62.8522 33.5995 62.7676 33.5665 62.6817 33.5335L62.1496 33.3358L61.5845 33.1389C61.4876 33.1062 61.3893 33.0735 61.2897 33.041L60.6758 32.8467C60.5776 32.8166 60.4783 32.7866 60.3778 32.7568ZM15.6098 20.235L15.575 20.26C10.8869 23.6183 7.69558 28.082 6.77428 33.0323C7.22305 32.7515 7.73432 32.4783 8.30332 32.214L8.78598 31.9979L9.29434 31.7859C9.64168 31.6461 10.0058 31.5091 10.386 31.3752L10.9683 31.1766L11.5741 30.9827L12.203 30.7937L12.8386 30.6133C13.3111 26.8966 14.2643 23.398 15.6098 20.235ZM57.3902 20.2351L57.4689 20.4216C58.773 23.5353 59.6982 26.9695 60.1614 30.6133L60.797 30.7937L61.4259 30.9827L62.0317 31.1766L62.614 31.3752C62.9942 31.5091 63.3583 31.6461 63.7057 31.7859L64.214 31.9979L64.6967 32.214C65.2657 32.4783 65.777 32.7515 66.2263 33.0325C65.3021 28.0697 62.0973 23.5963 57.3902 20.2351ZM19.1114 18.0871L18.7694 18.2691C16.9071 21.7155 15.5696 25.7271 14.9281 30.0903L14.9385 30.0886L15.6747 29.9257L16.4309 29.7685L17.2064 29.6171L18.0007 29.4715L18.8133 29.332L19.6438 29.1986L20.4914 29.0715L21.3558 28.9508L22.2365 28.8367L23.1327 28.7293L24.0442 28.6287C24.1973 28.6125 24.351 28.5966 24.5054 28.581L25.4385 28.4908L26.3855 28.4078L27.3458 28.3321L28.3189 28.2638L28.737 28.237L28.7638 27.8189L28.8321 26.8458L28.9078 25.8855L28.9908 24.9385L29.081 24.0054L29.1781 23.0866L29.2822 22.1827L29.3929 21.2942L29.5104 20.4216L29.6342 19.5655L29.7645 18.7264L29.901 17.9048L30.0435 17.1012L30.1921 16.3162C30.2173 16.187 30.2428 16.0585 30.2685 15.9309L30.4257 15.1747L30.5886 14.4385L30.5903 14.4281C26.3708 15.0485 22.4801 16.3197 19.1114 18.0871ZM42.4098 14.4281L42.4114 14.4385L42.5743 15.1747L42.7315 15.9309L42.8829 16.7064L43.0285 17.5007L43.168 18.3133L43.3014 19.1438L43.4285 19.9914L43.5492 20.8558L43.6633 21.7365L43.7707 22.6327L43.8713 23.5442C43.8875 23.6973 43.9034 23.851 43.919 24.0054L44.0092 24.9385L44.0922 25.8855L44.1679 26.8458L44.2362 27.8189L44.262 28.237L44.6811 28.2638L45.6542 28.3321L46.6145 28.4078L47.5615 28.4908L48.4946 28.581L49.4134 28.6781L50.3173 28.7822L51.2058 28.8929L52.0784 29.0104L52.9345 29.1342L53.7736 29.2645L54.5952 29.401L55.3988 29.5435L56.1838 29.6921C56.313 29.7173 56.4415 29.7428 56.5691 29.7685L57.3253 29.9257L58.0615 30.0886L58.0719 30.0903C57.4304 25.7271 56.0929 21.7155 54.2306 18.2691C50.7845 16.4071 46.7729 15.0696 42.4098 14.4281ZM36.5 14C35.214 14 33.948 14.0595 32.7064 14.1747L32.7834 13.8577C31.7976 17.8009 31.0956 22.7229 30.748 28.1296L31.3094 28.1047L32.3283 28.0674C32.499 28.0618 32.6701 28.0566 32.8416 28.0517L33.8755 28.0265L34.9188 28.0096L35.9708 28.0011C36.1469 28.0004 36.3233 28 36.5 28L37.5563 28.0043C37.7316 28.0057 37.9066 28.0075 38.0812 28.0096L39.1245 28.0265L40.1584 28.0517L41.1824 28.085C41.3522 28.0913 41.5216 28.0978 41.6906 28.1047L42.252 28.1296C41.9136 22.8665 41.2394 18.0628 40.2945 14.174C39.052 14.0595 37.786 14 36.5 14ZM23.8797 8.77627L23.5462 8.9331C17.2737 11.9405 12.2086 17.0641 9.27612 23.3789C11.3833 20.8285 14.1101 18.5954 17.2989 16.7989C19.0954 13.6101 21.3285 10.8833 23.8797 8.77627ZM49.1211 8.77612L49.1422 8.79434C51.6843 10.8989 53.9097 13.6192 55.7011 16.7989C58.8899 18.5954 61.6167 20.8285 63.7237 23.3797C60.7397 16.9528 55.5472 11.7603 49.1211 8.77612ZM33.5325 6.27371L33.3134 6.31657C28.4382 7.29257 24.0468 10.472 20.7351 15.1098C23.898 13.7643 27.3966 12.8111 31.1133 12.3386L31.2937 11.703L31.4827 11.0741L31.6766 10.4683L31.8752 9.886C32.0091 9.5058 32.1461 9.14168 32.2859 8.79434L32.4979 8.28598L32.714 7.80332C32.9783 7.23432 33.2515 6.72305 33.5325 6.27371ZM39.4677 6.27428L39.4808 6.29515C39.7572 6.73929 40.0259 7.24335 40.286 7.80332L40.5021 8.28598L40.7141 8.79434C40.8539 9.14168 40.9909 9.5058 41.1248 9.886L41.3234 10.4683L41.5173 11.0741L41.7063 11.703L41.8867 12.3386C45.6034 12.8111 49.102 13.7643 52.265 15.1098C48.9037 10.4027 44.4303 7.19786 39.4677 6.27428ZM36.5 6C36.2131 6 35.8189 6.35485 35.3729 7.04231L35.1919 7.33498C35.1613 7.38669 35.1305 7.43987 35.0995 7.49451L34.9116 7.83981L34.7202 8.21978C34.688 8.28598 34.6558 8.35362 34.6234 8.42268L34.4281 8.85409C34.3954 8.92883 34.3626 9.00497 34.3298 9.08253L34.1324 9.56466C34.0995 9.64781 34.0665 9.73236 34.0335 9.81828L33.8358 10.3504L33.6389 10.9155C33.6062 11.0124 33.5735 11.1107 33.541 11.2103L33.3467 11.8242C33.3166 11.9224 33.2866 12.0217 33.2568 12.1222C34.3229 12.0412 35.405 12 36.5 12C37.595 12 38.6771 12.0412 39.7438 12.1218L39.7495 12.1433C39.7175 12.0356 39.6855 11.9293 39.6533 11.8242L39.459 11.2103C39.4265 11.1107 39.3938 11.0124 39.3611 10.9155L39.1642 10.3504L38.9665 9.81828C38.9335 9.73236 38.9005 9.64781 38.8676 9.56466L38.6702 9.08253L38.474 8.63413C38.4089 8.49032 38.3441 8.35219 38.2798 8.21978L38.0884 7.83981L37.9005 7.49451C37.8695 7.43987 37.8387 7.38669 37.8081 7.33498L37.6271 7.04231C37.1811 6.35485 36.7869 6 36.5 6Z" fill="#404040"/>
</svg>
