<svg width="72" height="72" viewBox="0 0 72 72" fill="none" xmlns="http://www.w3.org/2000/svg">
<g clip-path="url(#clip0_1208_5230)">
<path d="M36.2133 34.0082C32.7928 34.0082 29.4491 33.0107 26.6051 31.1418C23.7611 29.273 21.5444 26.6167 20.2354 23.5089C18.9265 20.4011 18.5839 16.9813 19.2512 13.6821C19.9185 10.3828 21.5657 7.35231 23.9844 4.9737C26.403 2.59509 29.4845 0.975263 32.8393 0.319006C36.1941 -0.337251 39.6714 -0.000464156 42.8315 1.28683C45.9916 2.57412 48.6926 4.75408 50.5929 7.55103C52.4932 10.348 53.5075 13.6363 53.5075 17.0002C53.5038 21.5098 51.6804 25.8337 48.4379 29.0225C45.1954 32.2113 40.7988 34.0044 36.2133 34.0082ZM36.2133 2.10241C33.2155 2.10241 30.285 2.97671 27.7925 4.61478C25.3 6.25285 23.3574 8.58109 22.2105 11.305C21.0637 14.0289 20.7639 17.0261 21.3493 19.9175C21.9347 22.8089 23.3789 25.4647 25.4991 27.5489C27.6194 29.6331 30.3205 31.0521 33.2609 31.6264C36.2013 32.2007 39.2488 31.9046 42.018 30.7754C44.7873 29.6462 47.1537 27.7348 48.8182 25.2828C50.4826 22.8308 51.3703 19.9484 51.3689 17.0002C51.3633 13.0495 49.7644 9.26242 46.9232 6.46955C44.082 3.67669 40.2304 2.10612 36.2133 2.10241Z" fill="#202020"/>
<path d="M37.3182 25.5341H35.3649C34.3521 25.5323 33.3814 25.1357 32.6652 24.4314C31.949 23.7271 31.5458 22.7724 31.5439 21.7764C31.5439 21.4975 31.6566 21.23 31.8571 21.0328C32.0577 20.8356 32.3297 20.7248 32.6133 20.7248C32.8969 20.7248 33.1688 20.8356 33.3694 21.0328C33.5699 21.23 33.6826 21.4975 33.6826 21.7764C33.6826 22.2152 33.8598 22.636 34.1754 22.9463C34.4909 23.2565 34.9187 23.4309 35.3649 23.4309H37.3182C37.7644 23.4309 38.1923 23.2565 38.5078 22.9463C38.8233 22.636 39.0006 22.2152 39.0006 21.7764V19.8555C39.0006 19.4166 38.8233 18.9958 38.5078 18.6855C38.1923 18.3752 37.7644 18.2009 37.3182 18.2009H35.3649C34.3528 18.2009 33.382 17.806 32.6656 17.1028C31.9493 16.3996 31.5458 15.4455 31.5439 14.4501V12.5292C31.5458 11.5332 31.949 10.5785 32.6652 9.87418C33.3814 9.16987 34.3521 8.77334 35.3649 8.77148H37.3182C38.331 8.77334 39.3018 9.16987 40.018 9.87418C40.7342 10.5785 41.1373 11.5332 41.1392 12.5292V12.6133C41.1392 12.8922 41.0266 13.1597 40.8261 13.3569C40.6255 13.5542 40.3535 13.6649 40.0699 13.6649C39.7863 13.6649 39.5144 13.5542 39.3138 13.3569C39.1133 13.1597 39.0006 12.8922 39.0006 12.6133V12.5292C39.0006 12.0904 38.8233 11.6696 38.5078 11.3593C38.1923 11.0491 37.7644 10.8747 37.3182 10.8747H35.3649C34.9187 10.8747 34.4909 11.0491 34.1754 11.3593C33.8598 11.6696 33.6826 12.0904 33.6826 12.5292V14.4712C33.6844 14.9088 33.8625 15.3279 34.1778 15.6366C34.4931 15.9454 34.92 16.1187 35.3649 16.1187H37.3182C38.331 16.1205 39.3018 16.5171 40.018 17.2214C40.7342 17.9257 41.1373 18.8804 41.1392 19.8764V21.7974C41.1317 22.7897 40.7261 23.7391 40.0105 24.4389C39.295 25.1386 38.3273 25.5323 37.3182 25.5341Z" fill="#202020"/>
<path d="M36.3564 10.5795C36.0728 10.5795 35.8008 10.4687 35.6003 10.2715C35.3998 10.0743 35.2871 9.80681 35.2871 9.52791V6.6395C35.2871 6.36059 35.3998 6.09311 35.6003 5.89589C35.8008 5.69868 36.0728 5.58789 36.3564 5.58789C36.64 5.58789 36.912 5.69868 37.1125 5.89589C37.3131 6.09311 37.4257 6.36059 37.4257 6.6395V9.563C37.4165 9.83578 37.2997 10.0943 37.1002 10.284C36.9006 10.4737 36.6339 10.5797 36.3564 10.5795Z" fill="#202020"/>
<path d="M36.3564 28.4213C36.0728 28.4213 35.8008 28.3105 35.6003 28.1133C35.3998 27.9161 35.2871 27.6486 35.2871 27.3697V24.4813C35.2871 24.2024 35.3998 23.9349 35.6003 23.7377C35.8008 23.5405 36.0728 23.4297 36.3564 23.4297C36.64 23.4297 36.912 23.5405 37.1125 23.7377C37.3131 23.9349 37.4257 24.2024 37.4257 24.4813V27.3697C37.4257 27.6486 37.3131 27.9161 37.1125 28.1133C36.912 28.3105 36.64 28.4213 36.3564 28.4213Z" fill="#202020"/>
<path d="M30.2258 71.9991H5.90973C4.34296 71.9972 2.84089 71.3842 1.73301 70.2947C0.625136 69.2051 0.00188654 67.728 0 66.1872V63.6283C0.00188654 62.0875 0.625136 60.6102 1.73301 59.5206C2.84089 58.4311 4.34296 57.8183 5.90973 57.8164H30.2258C31.7925 57.8183 33.2946 58.4311 34.4025 59.5206C35.5104 60.6102 36.1335 62.0875 36.1354 63.6283V66.1872C36.1335 67.728 35.5104 69.2051 34.4025 70.2947C33.2946 71.3842 31.7925 71.9972 30.2258 71.9991ZM5.90973 59.9196C4.90958 59.9196 3.95038 60.3103 3.24316 61.0058C2.53595 61.7013 2.13861 62.6447 2.13861 63.6283V66.1872C2.1405 67.1702 2.53844 68.1123 3.24525 68.8074C3.95206 69.5026 4.91015 69.894 5.90973 69.8959H30.2258C31.2253 69.894 32.1834 69.5026 32.8902 68.8074C33.597 68.1123 33.9949 67.1702 33.9968 66.1872V63.6283C33.9968 62.6447 33.5995 61.7013 32.8923 61.0058C32.1851 60.3103 31.2259 59.9196 30.2258 59.9196H5.90973Z" fill="#202020"/>
<path d="M30.2258 59.7811H5.90973C4.34361 59.7811 2.84153 59.1699 1.73345 58.0815C0.625367 56.9931 0.00188916 55.5166 0 53.9764V51.4174C0.00188654 49.8765 0.625136 48.3994 1.73301 47.3099C2.84089 46.2203 4.34296 45.6073 5.90973 45.6055H30.2258C31.7925 45.6073 33.2946 46.2203 34.4025 47.3099C35.5104 48.3994 36.1335 49.8765 36.1354 51.4174V53.9764C36.1335 55.5166 35.5101 56.9931 34.402 58.0815C33.294 59.1699 31.7919 59.7811 30.2258 59.7811ZM5.90973 47.7087C4.90958 47.7087 3.95038 48.0995 3.24316 48.795C2.53595 49.4905 2.13861 50.4338 2.13861 51.4174V53.9764C2.1405 54.9588 2.53868 55.9003 3.24569 56.5943C3.9527 57.2883 4.91081 57.6779 5.90973 57.6779H30.2258C31.2247 57.6779 32.1828 57.2883 32.8898 56.5943C33.5968 55.9003 33.9949 54.9588 33.9968 53.9764V51.4174C33.9968 50.4338 33.5995 49.4905 32.8923 48.795C32.1851 48.0995 31.2259 47.7087 30.2258 47.7087H5.90973Z" fill="#202020"/>
<path d="M30.2258 47.5682H5.90973C4.34361 47.5682 2.84153 46.9568 1.73345 45.8684C0.625367 44.78 0.00188916 43.3035 0 41.7633V39.2045C0.00188654 37.6636 0.625136 36.1864 1.73301 35.0969C2.84089 34.0074 4.34296 33.3944 5.90973 33.3926H30.2258C31.7925 33.3944 33.2946 34.0074 34.4025 35.0969C35.5104 36.1864 36.1335 37.6636 36.1354 39.2045V41.7633C36.1335 43.3035 35.5101 44.78 34.402 45.8684C33.294 46.9568 31.7919 47.5682 30.2258 47.5682ZM5.90973 35.5028C4.90958 35.5028 3.95038 35.8936 3.24316 36.5891C2.53595 37.2846 2.13861 38.2279 2.13861 39.2115V41.7703C2.1405 42.7527 2.53868 43.6942 3.24569 44.3882C3.9527 45.0822 4.91081 45.472 5.90973 45.472H30.2258C31.2247 45.472 32.1828 45.0822 32.8898 44.3882C33.5968 43.6942 33.9949 42.7527 33.9968 41.7703V39.2115C33.9968 38.2279 33.5995 37.2846 32.8923 36.5891C32.1851 35.8936 31.2259 35.5028 30.2258 35.5028H5.90973Z" fill="#202020"/>
<path d="M66.0909 71.9991H41.775C40.2082 71.9972 38.706 71.3842 37.5982 70.2947C36.4903 69.2051 35.8671 67.728 35.8652 66.1872V63.6283C35.8671 62.0875 36.4903 60.6102 37.5982 59.5206C38.706 58.4311 40.2082 57.8183 41.775 57.8164H66.0909C67.6577 57.8183 69.1598 58.4311 70.2677 59.5206C71.3756 60.6102 71.9987 62.0875 72.0006 63.6283V66.1872C71.9987 67.728 71.3756 69.2051 70.2677 70.2947C69.1598 71.3842 67.6577 71.9972 66.0909 71.9991ZM41.775 59.9196C40.7748 59.9196 39.8155 60.3103 39.1083 61.0058C38.4011 61.7013 38.0038 62.6447 38.0038 63.6283V66.1872C38.0057 67.1702 38.4036 68.1123 39.1104 68.8074C39.8172 69.5026 40.7754 69.894 41.775 69.8959H66.0909C67.0905 69.894 68.0487 69.5026 68.7555 68.8074C69.4623 68.1123 69.8601 67.1702 69.862 66.1872V63.6283C69.862 62.6447 69.4648 61.7013 68.7576 61.0058C68.0503 60.3103 67.0911 59.9196 66.0909 59.9196H41.775Z" fill="#202020"/>
<path d="M66.0909 59.7811H41.775C40.2088 59.7811 38.7067 59.1699 37.5986 58.0815C36.4905 56.9931 35.8671 55.5166 35.8652 53.9764V51.4174C35.8671 49.8765 36.4903 48.3994 37.5982 47.3099C38.706 46.2203 40.2082 45.6073 41.775 45.6055H66.0909C67.6577 45.6073 69.1598 46.2203 70.2677 47.3099C71.3756 48.3994 71.9987 49.8765 72.0006 51.4174V53.9764C71.9987 55.5166 71.3753 56.9931 70.2672 58.0815C69.1591 59.1699 67.657 59.7811 66.0909 59.7811ZM41.775 47.7087C40.7748 47.7087 39.8155 48.0995 39.1083 48.795C38.4011 49.4905 38.0038 50.4338 38.0038 51.4174V53.9764C38.0057 54.9588 38.4038 55.9003 39.1108 56.5943C39.8178 57.2883 40.776 57.6779 41.775 57.6779H66.0909C67.0898 57.6779 68.0479 57.2883 68.7549 56.5943C69.462 55.9003 69.8601 54.9588 69.862 53.9764V51.4174C69.862 50.4338 69.4648 49.4905 68.7576 48.795C68.0503 48.0995 67.0911 47.7087 66.0909 47.7087H41.775Z" fill="#202020"/>
<path d="M66.0909 47.5682H41.775C40.2088 47.5682 38.7067 46.9568 37.5986 45.8684C36.4905 44.78 35.8671 43.3035 35.8652 41.7633V39.2045C35.8671 37.6636 36.4903 36.1864 37.5982 35.0969C38.706 34.0074 40.2082 33.3944 41.775 33.3926H66.0909C67.6577 33.3944 69.1598 34.0074 70.2677 35.0969C71.3756 36.1864 71.9987 37.6636 72.0006 39.2045V41.7633C71.9987 43.3035 71.3753 44.78 70.2672 45.8684C69.1591 46.9568 67.657 47.5682 66.0909 47.5682ZM41.775 35.5028C40.7748 35.5028 39.8155 35.8936 39.1083 36.5891C38.4011 37.2846 38.0038 38.2279 38.0038 39.2115V41.7703C38.0057 42.7527 38.4038 43.6942 39.1108 44.3882C39.8178 45.0822 40.776 45.472 41.775 45.472H66.0909C67.0898 45.472 68.0479 45.0822 68.7549 44.3882C69.462 43.6942 69.8601 42.7527 69.862 41.7703V39.2115C69.862 38.2279 69.4648 37.2846 68.7576 36.5891C68.0503 35.8936 67.0911 35.5028 66.0909 35.5028H41.775Z" fill="#202020"/>
<path d="M8.76169 47.5682C8.47809 47.5682 8.2061 47.4575 8.00557 47.2603C7.80504 47.0631 7.69238 46.7955 7.69238 46.5166V34.4442C7.69238 34.1653 7.80504 33.8978 8.00557 33.7006C8.2061 33.5034 8.47809 33.3926 8.76169 33.3926C9.04529 33.3926 9.31728 33.5034 9.51781 33.7006C9.71834 33.8978 9.831 34.1653 9.831 34.4442V46.5166C9.831 46.7955 9.71834 47.0631 9.51781 47.2603C9.31728 47.4575 9.04529 47.5682 8.76169 47.5682Z" fill="#202020"/>
<path d="M18.164 47.5682C17.8804 47.5682 17.6084 47.4575 17.4079 47.2603C17.2074 47.0631 17.0947 46.7955 17.0947 46.5166V34.4442C17.0947 34.1653 17.2074 33.8978 17.4079 33.7006C17.6084 33.5034 17.8804 33.3926 18.164 33.3926C18.4476 33.3926 18.7196 33.5034 18.9202 33.7006C19.1207 33.8978 19.2333 34.1653 19.2333 34.4442V46.5166C19.2333 46.7955 19.1207 47.0631 18.9202 47.2603C18.7196 47.4575 18.4476 47.5682 18.164 47.5682Z" fill="#202020"/>
<path d="M27.5742 47.5682C27.2906 47.5682 27.0186 47.4575 26.8181 47.2603C26.6175 47.0631 26.5049 46.7955 26.5049 46.5166V34.4442C26.5049 34.1653 26.6175 33.8978 26.8181 33.7006C27.0186 33.5034 27.2906 33.3926 27.5742 33.3926C27.8578 33.3926 28.1297 33.5034 28.3302 33.7006C28.5308 33.8978 28.6435 34.1653 28.6435 34.4442V46.5166C28.6435 46.7955 28.5308 47.0631 28.3302 47.2603C28.1297 47.4575 27.8578 47.5682 27.5742 47.5682Z" fill="#202020"/>
<path d="M8.76169 59.3377C8.47809 59.3377 8.2061 59.2269 8.00557 59.0297C7.80504 58.8324 7.69238 58.565 7.69238 58.2861V46.2137C7.69238 45.9348 7.80504 45.6672 8.00557 45.47C8.2061 45.2728 8.47809 45.1621 8.76169 45.1621C9.04529 45.1621 9.31728 45.2728 9.51781 45.47C9.71834 45.6672 9.831 45.9348 9.831 46.2137V58.2861C9.831 58.565 9.71834 58.8324 9.51781 59.0297C9.31728 59.2269 9.04529 59.3377 8.76169 59.3377Z" fill="#202020"/>
<path d="M18.164 59.3377C17.8804 59.3377 17.6084 59.2269 17.4079 59.0297C17.2074 58.8324 17.0947 58.565 17.0947 58.2861V46.2137C17.0947 45.9348 17.2074 45.6672 17.4079 45.47C17.6084 45.2728 17.8804 45.1621 18.164 45.1621C18.4476 45.1621 18.7196 45.2728 18.9202 45.47C19.1207 45.6672 19.2333 45.9348 19.2333 46.2137V58.2861C19.2333 58.565 19.1207 58.8324 18.9202 59.0297C18.7196 59.2269 18.4476 59.3377 18.164 59.3377Z" fill="#202020"/>
<path d="M27.5742 59.3377C27.2906 59.3377 27.0186 59.2269 26.8181 59.0297C26.6175 58.8324 26.5049 58.565 26.5049 58.2861V46.2137C26.5049 45.9348 26.6175 45.6672 26.8181 45.47C27.0186 45.2728 27.2906 45.1621 27.5742 45.1621C27.8578 45.1621 28.1297 45.2728 28.3302 45.47C28.5308 45.6672 28.6435 45.9348 28.6435 46.2137V58.2861C28.6435 58.565 28.5308 58.8324 28.3302 59.0297C28.1297 59.2269 27.8578 59.3377 27.5742 59.3377Z" fill="#202020"/>
<path d="M8.76169 71.0534C8.47809 71.0534 8.2061 70.9427 8.00557 70.7455C7.80504 70.5483 7.69238 70.2807 7.69238 70.0018V57.9364C7.69238 57.6575 7.80504 57.3901 8.00557 57.1929C8.2061 56.9956 8.47809 56.8848 8.76169 56.8848C9.04529 56.8848 9.31728 56.9956 9.51781 57.1929C9.71834 57.3901 9.831 57.6575 9.831 57.9364V70.0088C9.82911 70.2865 9.71562 70.5522 9.51529 70.7479C9.31496 70.9436 9.04406 71.0534 8.76169 71.0534Z" fill="#202020"/>
<path d="M18.164 71.0534C17.8804 71.0534 17.6084 70.9427 17.4079 70.7455C17.2074 70.5483 17.0947 70.2807 17.0947 70.0018V57.9364C17.0947 57.6575 17.2074 57.3901 17.4079 57.1929C17.6084 56.9956 17.8804 56.8848 18.164 56.8848C18.4476 56.8848 18.7196 56.9956 18.9202 57.1929C19.1207 57.3901 19.2333 57.6575 19.2333 57.9364V70.0088C19.2315 70.2865 19.118 70.5522 18.9176 70.7479C18.7173 70.9436 18.4464 71.0534 18.164 71.0534Z" fill="#202020"/>
<path d="M27.5742 71.0534C27.2906 71.0534 27.0186 70.9427 26.8181 70.7455C26.6175 70.5483 26.5049 70.2807 26.5049 70.0018V57.9364C26.5049 57.6575 26.6175 57.3901 26.8181 57.1929C27.0186 56.9956 27.2906 56.8848 27.5742 56.8848C27.8578 56.8848 28.1297 56.9956 28.3302 57.1929C28.5308 57.3901 28.6435 57.6575 28.6435 57.9364V70.0088C28.6416 70.2865 28.5281 70.5522 28.3278 70.7479C28.1275 70.9436 27.8566 71.0534 27.5742 71.0534Z" fill="#202020"/>
<path d="M44.5263 48.0369C44.2427 48.0369 43.9708 47.9262 43.7703 47.729C43.5698 47.5317 43.457 47.2642 43.457 46.9853V34.9129C43.457 34.634 43.5698 34.3665 43.7703 34.1693C43.9708 33.9721 44.2427 33.8613 44.5263 33.8613C44.8099 33.8613 45.082 33.9721 45.2825 34.1693C45.4831 34.3665 45.5956 34.634 45.5956 34.9129V46.9853C45.5956 47.2642 45.4831 47.5317 45.2825 47.729C45.082 47.9262 44.8099 48.0369 44.5263 48.0369Z" fill="#202020"/>
<path d="M53.9375 48.0369C53.6539 48.0369 53.382 47.9262 53.1814 47.729C52.9809 47.5317 52.8682 47.2642 52.8682 46.9853V34.9129C52.8682 34.634 52.9809 34.3665 53.1814 34.1693C53.382 33.9721 53.6539 33.8613 53.9375 33.8613C54.2211 33.8613 54.4931 33.9721 54.6937 34.1693C54.8942 34.3665 55.0068 34.634 55.0068 34.9129V46.9853C55.0068 47.2642 54.8942 47.5317 54.6937 47.729C54.4931 47.9262 54.2211 48.0369 53.9375 48.0369Z" fill="#202020"/>
<path d="M63.3398 48.0369C63.0562 48.0369 62.7841 47.9262 62.5836 47.729C62.3831 47.5317 62.2705 47.2642 62.2705 46.9853V34.9129C62.2705 34.634 62.3831 34.3665 62.5836 34.1693C62.7841 33.9721 63.0562 33.8613 63.3398 33.8613C63.6234 33.8613 63.8953 33.9721 64.0959 34.1693C64.2964 34.3665 64.4091 34.634 64.4091 34.9129V46.9853C64.4091 47.2642 64.2964 47.5317 64.0959 47.729C63.8953 47.9262 63.6234 48.0369 63.3398 48.0369Z" fill="#202020"/>
<path d="M44.5263 59.7811C44.2427 59.7811 43.9708 59.6704 43.7703 59.4732C43.5698 59.276 43.457 59.0084 43.457 58.7295V46.6571C43.457 46.3782 43.5698 46.1108 43.7703 45.9136C43.9708 45.7163 44.2427 45.6055 44.5263 45.6055C44.8099 45.6055 45.082 45.7163 45.2825 45.9136C45.4831 46.1108 45.5956 46.3782 45.5956 46.6571V58.7295C45.5956 59.0084 45.4831 59.276 45.2825 59.4732C45.082 59.6704 44.8099 59.7811 44.5263 59.7811Z" fill="#202020"/>
<path d="M53.9375 59.7811C53.6539 59.7811 53.382 59.6704 53.1814 59.4732C52.9809 59.276 52.8682 59.0084 52.8682 58.7295V46.6571C52.8682 46.3782 52.9809 46.1108 53.1814 45.9136C53.382 45.7163 53.6539 45.6055 53.9375 45.6055C54.2211 45.6055 54.4931 45.7163 54.6937 45.9136C54.8942 46.1108 55.0068 46.3782 55.0068 46.6571V58.7295C55.0068 59.0084 54.8942 59.276 54.6937 59.4732C54.4931 59.6704 54.2211 59.7811 53.9375 59.7811Z" fill="#202020"/>
<path d="M63.3398 59.7811C63.0562 59.7811 62.7841 59.6704 62.5836 59.4732C62.3831 59.276 62.2705 59.0084 62.2705 58.7295V46.6571C62.2705 46.3782 62.3831 46.1108 62.5836 45.9136C62.7841 45.7163 63.0562 45.6055 63.3398 45.6055C63.6234 45.6055 63.8953 45.7163 64.0959 45.9136C64.2964 46.1108 64.4091 46.3782 64.4091 46.6571V58.7295C64.4091 59.0084 64.2964 59.276 64.0959 59.4732C63.8953 59.6704 63.6234 59.7811 63.3398 59.7811Z" fill="#202020"/>
<path d="M44.5263 71.5233C44.2427 71.5233 43.9708 71.4126 43.7703 71.2154C43.5698 71.0182 43.457 70.7506 43.457 70.4717V58.3993C43.457 58.1204 43.5698 57.853 43.7703 57.6557C43.9708 57.4585 44.2427 57.3477 44.5263 57.3477C44.8099 57.3477 45.082 57.4585 45.2825 57.6557C45.4831 57.853 45.5956 58.1204 45.5956 58.3993V70.4717C45.5956 70.7506 45.4831 71.0182 45.2825 71.2154C45.082 71.4126 44.8099 71.5233 44.5263 71.5233Z" fill="#202020"/>
<path d="M53.9375 71.5233C53.6539 71.5233 53.382 71.4126 53.1814 71.2154C52.9809 71.0182 52.8682 70.7506 52.8682 70.4717V58.3993C52.8682 58.1204 52.9809 57.853 53.1814 57.6557C53.382 57.4585 53.6539 57.3477 53.9375 57.3477C54.2211 57.3477 54.4931 57.4585 54.6937 57.6557C54.8942 57.853 55.0068 58.1204 55.0068 58.3993V70.4717C55.0068 70.7506 54.8942 71.0182 54.6937 71.2154C54.4931 71.4126 54.2211 71.5233 53.9375 71.5233Z" fill="#202020"/>
<path d="M63.3398 71.5233C63.0562 71.5233 62.7841 71.4126 62.5836 71.2154C62.3831 71.0182 62.2705 70.7506 62.2705 70.4717V58.3993C62.2705 58.1204 62.3831 57.853 62.5836 57.6557C62.7841 57.4585 63.0562 57.3477 63.3398 57.3477C63.6234 57.3477 63.8953 57.4585 64.0959 57.6557C64.2964 57.853 64.4091 58.1204 64.4091 58.3993V70.4717C64.4091 70.7506 64.2964 71.0182 64.0959 71.2154C63.8953 71.4126 63.6234 71.5233 63.3398 71.5233Z" fill="#202020"/>
</g>
<defs>
<clipPath id="clip0_1208_5230">
<rect width="72" height="72" fill="white"/>
</clipPath>
</defs>
</svg>
