<svg width="75" height="75" viewBox="0 0 75 75" fill="none" xmlns="http://www.w3.org/2000/svg">
<g clip-path="url(#clip0_4_7062)">
<path d="M19.2536 37.1613C19.7051 36.7097 19.7051 35.9777 19.2535 35.5261C18.802 35.0746 18.0699 35.0746 17.6184 35.5261C17.1668 35.9777 17.1668 36.7098 17.6184 37.1613C18.0699 37.6129 18.802 37.6129 19.2536 37.1613Z" fill="black"/>
<path d="M57.7067 36.3175C58.1582 35.866 58.1582 35.1339 57.7067 34.6824C57.2551 34.2308 56.523 34.2308 56.0715 34.6824C55.6199 35.1339 55.62 35.866 56.0715 36.3176C56.5231 36.7691 57.2552 36.7691 57.7067 36.3175Z" fill="black"/>
<path d="M1.26822 25.717C1.05146 25.9338 0.929688 26.2279 0.929688 26.5345C0.929688 26.8411 1.05146 27.1351 1.26822 27.3519L3.71947 29.8032L17.6176 43.7013C17.7247 43.8096 17.8522 43.8955 17.9927 43.9541C18.1332 44.0128 18.284 44.0429 18.4362 44.0429C18.5885 44.0429 18.7392 44.0128 18.8797 43.9541C19.0203 43.8955 19.1478 43.8096 19.2548 43.7013L20.0735 42.8827L21.8495 44.6587C21.5409 45.3065 21.4404 46.0339 21.5617 46.7411C21.683 47.4482 22.0202 48.1005 22.527 48.6084L21.7084 49.4271C21.0587 50.0779 20.6938 50.9599 20.6938 51.8795C20.6938 52.7991 21.0587 53.6811 21.7084 54.3319C22.3235 54.947 23.1352 55.2916 24.0001 55.3332C24.044 56.1588 24.3493 56.9728 24.9783 57.6018C25.6119 58.2354 26.4352 58.5429 27.2654 58.5846C27.3047 59.4148 27.6145 60.238 28.2482 60.8716C28.8656 61.4891 29.675 61.8336 30.5399 61.8729C30.5838 62.6985 30.889 63.5125 31.518 64.1415C32.1933 64.8191 33.0836 65.1544 33.9716 65.1544C34.8596 65.1544 35.7476 64.8168 36.4252 64.1415L37.2438 63.3229C37.8982 63.9773 38.77 64.3381 39.6973 64.3381C40.1531 64.3395 40.6047 64.2506 41.0258 64.0763C41.447 63.9021 41.8294 63.646 42.1509 63.3229C42.7845 62.6893 43.0944 61.866 43.1337 61.0358C43.9662 60.9965 44.7895 60.6866 45.4231 60.053C46.0498 59.424 46.355 58.6077 46.399 57.7844C47.2639 57.7451 48.0755 57.4006 48.6907 56.7831C49.3243 56.1495 49.6342 55.3263 49.6735 54.4961C50.5322 54.4671 51.3486 54.1163 51.9605 53.5133C52.6103 52.8625 52.9752 51.9805 52.9752 51.0609C52.9752 50.1413 52.6103 49.2592 51.9605 48.6084L52.7792 47.7898C53.8452 46.7238 54.0718 45.1304 53.4567 43.8401L55.2327 42.0641L56.0514 42.8827C56.1584 42.9909 56.2859 43.0769 56.4265 43.1355C56.567 43.1941 56.7177 43.2243 56.87 43.2243C57.0222 43.2243 57.173 43.1941 57.3135 43.1355C57.454 43.0769 57.5815 42.9909 57.6886 42.8827L71.5867 28.9846L71.5914 28.9776L74.0403 26.5287C74.2509 26.3106 74.3675 26.0186 74.3648 25.7154C74.3622 25.4122 74.2406 25.1222 74.0262 24.9078C73.8118 24.6935 73.5218 24.5719 73.2187 24.5692C72.9155 24.5666 72.6234 24.6831 72.4053 24.8938L63.412 33.8894L50.3233 20.8099L56.863 14.2701L59.3143 11.8189C59.5249 11.6008 59.6415 11.3087 59.6388 11.0056C59.6362 10.7024 59.5146 10.4124 59.3002 10.198C59.0858 9.98366 58.7958 9.86205 58.4927 9.85942C58.1895 9.85678 57.8974 9.97333 57.6793 10.1839L47.8674 19.9936L47.8651 19.9959L41.3254 26.5356C41.2177 26.643 41.1322 26.7706 41.074 26.9111C41.0157 27.0516 40.9857 27.2022 40.9857 27.3543C40.9857 27.5063 41.0157 27.6569 41.074 27.7974C41.1322 27.9379 41.2177 28.0655 41.3254 28.1729L42.9603 29.8078L41.737 31.0311L38.03 30.49C37.8517 30.4677 37.6707 30.4856 37.5002 30.5424C37.3297 30.5992 37.1741 30.6935 37.0449 30.8184L35.6019 32.2614L33.1484 29.8101L33.967 28.9915C34.0747 28.8841 34.1601 28.7565 34.2184 28.616C34.2767 28.4756 34.3067 28.325 34.3067 28.1729C34.3067 28.0208 34.2767 27.8702 34.2184 27.7297C34.1601 27.5893 34.0747 27.4617 33.967 27.3543L27.4272 20.8145L27.4249 20.8122L17.6199 11.0003C17.4018 10.7896 17.1098 10.6731 16.8066 10.6757C16.5034 10.6784 16.2134 10.8 15.9991 11.0143C15.7847 11.2287 15.6631 11.5187 15.6604 11.8219C15.6578 12.1251 15.7744 12.4171 15.985 12.6352L18.4362 15.0864L24.976 21.6262L11.8965 34.708L2.90316 25.7147C2.68573 25.4988 2.39162 25.3778 2.08521 25.3783C1.7788 25.3787 1.48504 25.5005 1.26822 25.717ZM24.9783 52.6969C24.7586 52.9082 24.4656 53.0262 24.1608 53.0262C23.856 53.0262 23.5631 52.9082 23.3433 52.6969C23.2357 52.5895 23.1502 52.4619 23.092 52.3215C23.0337 52.181 23.0037 52.0304 23.0037 51.8783C23.0037 51.7262 23.0337 51.5756 23.092 51.4352C23.1502 51.2947 23.2357 51.1671 23.3433 51.0597L24.162 50.2411L25.7969 51.876L24.9783 52.6969ZM28.2482 55.9668C28.0279 56.177 27.7352 56.2943 27.4307 56.2943C27.1262 56.2943 26.8335 56.177 26.6132 55.9668C26.5055 55.8594 26.4201 55.7318 26.3618 55.5913C26.3035 55.4509 26.2735 55.3003 26.2735 55.1482C26.2735 54.9961 26.3035 54.8455 26.3618 54.705C26.4201 54.5646 26.5055 54.437 26.6132 54.3296L27.4319 53.5109L29.0668 55.1459L28.2482 55.9668ZM31.518 59.2367C31.2978 59.4469 31.005 59.5642 30.7006 59.5642C30.3961 59.5642 30.1033 59.4469 29.8831 59.2367C29.6663 59.0199 29.5446 58.7258 29.5446 58.4192C29.5446 58.1126 29.6663 57.8186 29.8831 57.6018L30.7017 56.7831L32.3367 58.4181L31.518 59.2367ZM34.7902 62.5066C34.5722 62.7172 34.2801 62.8337 33.9769 62.8311C33.6738 62.8285 33.3838 62.7069 33.1694 62.4925C32.955 62.2781 32.8334 61.9881 32.8308 61.6849C32.8281 61.3818 32.9447 61.0897 33.1553 60.8716L33.9739 60.053L35.6088 61.6879L34.7902 62.5066ZM48.6884 22.4471L61.7702 35.5289L56.8654 40.4338L56.049 39.6174L44.6022 28.1729L44.5998 28.1706L43.7835 27.3543L48.6884 22.4471ZM38.2752 32.8603L41.9798 33.4014C42.1582 33.4269 42.3401 33.4105 42.5111 33.3535C42.6821 33.2966 42.8375 33.2005 42.9649 33.0731L44.5998 31.4381L53.5932 40.4314L51.1396 42.8827C51.0319 42.9901 50.9465 43.1177 50.8882 43.2582C50.8299 43.3986 50.7999 43.5492 50.7999 43.7013C50.7999 43.8534 50.8299 44.004 50.8882 44.1445C50.9465 44.2849 51.0319 44.4125 51.1396 44.5199C51.3559 44.7375 51.4774 45.0318 51.4774 45.3386C51.4774 45.6454 51.3559 45.9397 51.1396 46.1572L50.3233 46.9735L40.4998 37.1477C40.7065 36.9241 40.8159 36.6276 40.804 36.3234C40.792 36.0192 40.6597 35.7322 40.4362 35.5255C40.2126 35.3188 39.9161 35.2094 39.6119 35.2213C39.3077 35.2332 39.0207 35.3655 38.814 35.5891L34.3485 40.0545C33.8736 40.5122 33.2574 40.7951 32.6008 40.8568C31.9442 40.9186 31.286 40.7556 30.7341 40.3944L38.2752 32.8603ZM33.9716 33.8917L28.2482 39.6151C28.1405 39.7225 28.0551 39.8501 27.9968 39.9906C27.9385 40.1311 27.9085 40.2817 27.9085 40.4338C27.9085 40.5858 27.9385 40.7364 27.9968 40.8769C28.0551 41.0174 28.1405 41.145 28.2482 41.2524L28.6875 41.6918C29.6611 42.6653 30.9561 43.2018 32.3344 43.2018C33.0122 43.2035 33.6836 43.0709 34.3099 42.8117C34.9362 42.5525 35.505 42.1719 35.9835 41.6918L38.8764 38.7988L49.5047 49.4294L50.321 50.2457C50.5316 50.4638 50.6481 50.7558 50.6455 51.059C50.6429 51.3622 50.5213 51.6522 50.3069 51.8665C50.0925 52.0809 49.8025 52.2025 49.4993 52.2052C49.1962 52.2078 48.9041 52.0913 48.686 51.8806L45.4162 48.6108C45.1981 48.4001 44.906 48.2836 44.6029 48.2862C44.2997 48.2889 44.0097 48.4105 43.7953 48.6248C43.5809 48.8392 43.4593 49.1292 43.4567 49.4324C43.4541 49.7356 43.5706 50.0276 43.7812 50.2457L47.0511 53.5156C47.2679 53.7324 47.3896 54.0264 47.3896 54.333C47.3896 54.6396 47.2679 54.9337 47.0511 55.1505C46.8314 55.3618 46.5384 55.4798 46.2336 55.4798C45.9288 55.4798 45.6359 55.3618 45.4162 55.1505L42.144 51.8806C41.9259 51.67 41.6338 51.5535 41.3307 51.5561C41.0275 51.5587 40.7375 51.6803 40.5231 51.8947C40.3087 52.1091 40.1871 52.3991 40.1845 52.7023C40.1819 53.0054 40.2984 53.2975 40.509 53.5156L43.7789 56.7854C43.9957 57.0026 44.1174 57.2969 44.1172 57.6037C44.117 57.9106 43.9949 58.2047 43.7778 58.4215C43.5606 58.6383 43.2663 58.76 42.9595 58.7598C42.6526 58.7596 42.3585 58.6375 42.1417 58.4204L38.8718 55.1505C38.6537 54.9399 38.3616 54.8233 38.0585 54.826C37.7553 54.8286 37.4653 54.9502 37.2509 55.1646C37.0366 55.379 36.915 55.669 36.9123 55.9721C36.9097 56.2753 37.0262 56.5674 37.2369 56.7854L40.5067 60.0553C40.7235 60.2721 40.8453 60.5662 40.8453 60.8728C40.8453 61.1794 40.7235 61.4734 40.5067 61.6903C40.2865 61.9005 39.9937 62.0177 39.6893 62.0177C39.3848 62.0177 39.092 61.9005 38.8718 61.6903L38.0555 60.8739L34.7856 57.6041L24.1574 46.9781C23.941 46.7606 23.8196 46.4663 23.8196 46.1595C23.8196 45.8527 23.941 45.5584 24.1574 45.3409C24.265 45.2335 24.3505 45.1059 24.4087 44.9654C24.467 44.8249 24.497 44.6743 24.497 44.5223C24.497 44.3702 24.467 44.2196 24.4087 44.0791C24.3505 43.9386 24.265 43.811 24.1574 43.7036L21.7038 41.2524L31.5157 31.4428L33.9716 33.8917ZM31.5204 28.1706L30.704 28.9869L30.7017 28.9892L19.2548 40.4338L18.4385 41.2501L13.5314 36.3453L26.6132 23.2634L31.5204 28.1706Z" fill="black"/>
</g>
<defs>
<clipPath id="clip0_4_7062">
<rect width="74" height="74" fill="white" transform="translate(0.650391 0.5)"/>
</clipPath>
</defs>
</svg>
